<?xml version="1.0" encoding="UTF-8" standalone="no"?>
<svg
   width="92px"
   height="96px"
   viewBox="0 0 92 96"
   version="1.1"
   id="svg1"
   sodipodi:docname="icon.svg"
   inkscape:version="1.4 (86a8ad7, 2024-10-11)"
   xmlns:inkscape="http://www.inkscape.org/namespaces/inkscape"
   xmlns:sodipodi="http://sodipodi.sourceforge.net/DTD/sodipodi-0.dtd"
   xmlns="http://www.w3.org/2000/svg"
   xmlns:svg="http://www.w3.org/2000/svg">
  <defs
     id="defs1" />
  <sodipodi:namedview
     id="namedview1"
     pagecolor="#ffffff"
     bordercolor="#000000"
     borderopacity="0.25"
     inkscape:showpageshadow="2"
     inkscape:pageopacity="0.0"
     inkscape:pagecheckerboard="0"
     inkscape:deskcolor="#d1d1d1"
     inkscape:zoom="8.6770833"
     inkscape:cx="45.983193"
     inkscape:cy="48"
     inkscape:window-width="1920"
     inkscape:window-height="1051"
     inkscape:window-x="1285"
     inkscape:window-y="1341"
     inkscape:window-maximized="1"
     inkscape:current-layer="svg1" />
  <title
     id="title1">Group Copy 2</title>
  <g
     id="Page-1"
     stroke="none"
     stroke-width="1"
     fill="none"
     fill-rule="evenodd">
    <g
       id="icon-copy"
       transform="translate(-34, -40)"
       fill="#24292F">
      <g
         id="Group-Copy-2"
         transform="translate(34, 40.5)">
        <g
           id="Group-3-Copy-4"
           transform="translate(0, 0)">
          <path
             d="M65.4492701,16.3 C76.3374701,16.3 85.1635558,25.16479 85.1635558,36.1 L85.1635558,42.7 L90.9027661,54.1647464 C91.4694141,55.2966923 91.4668177,56.6300535 90.8957658,57.7597839 L85.1635558,69.1 L85.1635558,75.7 C85.1635558,86.63554 76.3374701,95.5 65.4492701,95.5 L26.0206986,95.5 C15.1328272,95.5 6.30641291,86.63554 6.30641291,75.7 L6.30641291,69.1 L0.448507752,57.7954874 C-0.14693501,56.6464093 -0.149634367,55.2802504 0.441262896,54.1288283 L6.30641291,42.7 L6.30641291,36.1 C6.30641291,25.16479 15.1328272,16.3 26.0206986,16.3 L65.4492701,16.3 Z M62.9301895,22 L29.189529,22 C19.8723267,22 12.3191987,29.5552188 12.3191987,38.875 L12.3191987,44.5 L7.44288578,53.9634655 C6.84794449,55.1180686 6.85066096,56.4896598 7.45017099,57.6418974 L12.3191987,67 L12.3191987,72.625 C12.3191987,81.9450625 19.8723267,89.5 29.189529,89.5 L62.9301895,89.5 C72.2476729,89.5 79.8005198,81.9450625 79.8005198,72.625 L79.8005198,67 L84.5682187,57.6061395 C85.1432011,56.473244 85.1458141,55.1345713 84.5752587,53.9994398 L79.8005198,44.5 L79.8005198,38.875 C79.8005198,29.5552188 72.2476729,22 62.9301895,22 Z"
             id="Combined-Shape"
             fill-rule="nonzero" />
          <circle
             id="Oval"
             cx="45.7349843"
             cy="11"
             r="11" />
        </g>
        <rect
           id="Rectangle-Copy"
           stroke="#24292F"
           stroke-width="8"
           x="31"
           y="44.5"
           width="5"
           height="22"
           rx="2.5" />
        <rect
           id="Rectangle-Copy-2"
           stroke="#24292F"
           stroke-width="8"
           x="55"
           y="44.5"
           width="5"
           height="22"
           rx="2.5" />
      </g>
    </g>
  </g>
  <path
     style="fill:#ff00ff;stroke-width:0.115246"
     d="M 24.597432,95.876182 C 22.173845,95.711697 19.608251,95.005261 17.342098,93.878425 11.876993,91.160925 8.0938691,86.226154 6.7319864,80.038415 6.499968,78.984236 6.4739642,78.488738 6.4270635,74.228139 L 6.3757902,69.570324 3.3791148,63.798367 C 1.4935484,60.16654 0.31304896,57.762223 0.19529215,57.313893 -0.15698805,55.972676 -0.10947255,55.848839 3.3191854,49.172274 l 3.0587522,-5.956254 0.049035,-4.638021 c 0.054953,-5.19786 0.099407,-5.564786 1.0031864,-8.28039 2.068489,-6.215232 7.351197,-11.17985 13.602254,-12.783215 2.258271,-0.579236 2.493012,-0.596353 8.960384,-0.653433 3.37527,-0.02979 6.136855,-0.07751 6.136855,-0.106052 0,-0.02854 -0.122445,-0.296502 -0.2721,-0.595474 -1.310987,-2.619037 -1.383647,-6.109665 -0.185772,-8.9246306 0.77755,-1.8272134 2.697748,-4.0753509 4.292506,-5.0255967 2.996099,-1.78524244 6.454006,-2.10810539 9.717989,-0.9073634 2.589357,0.9525633 5.036643,3.3489884 6.149155,6.0213612 1.144177,2.7484375 1.06411,6.1419255 -0.207928,8.8126135 l -0.328698,0.690111 h 5.329583 c 2.931271,0 5.86665,0.05246 6.523067,0.116584 8.377772,0.818377 15.2131,6.636176 17.329953,14.750163 0.483153,1.851945 0.537054,2.498771 0.585825,7.030012 l 0.04775,4.436975 3.024339,6.085231 3.024338,6.085233 v 1.117648 1.11765 l -3.02521,6.012164 -3.02521,6.012166 v 3.759484 c 0,5.017837 -0.16241,6.434227 -1.041429,9.082412 -1.680765,5.06357 -5.354043,9.244995 -10.137443,11.539822 -2.425515,1.163635 -4.655055,1.739254 -7.433373,1.919133 -1.954263,0.126527 -40.015792,0.113423 -41.899567,-0.01443 z m 41.899567,-6.18113 c 3.24422,-0.773686 5.821101,-2.157368 8.103706,-4.351368 1.994357,-1.916941 3.408512,-4.087263 4.282868,-6.572976 0.777222,-2.209569 0.839156,-2.704759 0.893571,-7.144525 l 0.04943,-4.032879 2.52014,-4.956317 c 2.026129,-3.984753 2.541546,-5.091861 2.629349,-5.647791 0.210702,-1.334094 0.112945,-1.597406 -2.627298,-7.076787 l -2.522322,-5.043624 -0.04987,-4.023827 c -0.0546,-4.405564 -0.08672,-4.672155 -0.833892,-6.922421 -0.823663,-2.480632 -2.108789,-4.526803 -4.083143,-6.501157 -2.354259,-2.354259 -4.852703,-3.752651 -8.188044,-4.582894 L 65.45979,22.536867 46.732299,22.500107 c -13.046712,-0.02561 -19.024639,0.0013 -19.707083,0.08888 -7.151533,0.917221 -12.839378,6.181175 -14.419486,13.344866 -0.217539,0.986254 -0.25293,1.584592 -0.300784,5.085273 l -0.05424,3.967503 -2.4707044,4.7912 c -1.3588873,2.635161 -2.5465084,5.013424 -2.6391579,5.285026 -0.216434,0.634479 -0.2159214,1.837625 0.00105,2.469736 0.093228,0.271603 1.2813746,2.631194 2.6403252,5.243535 l 2.4708201,4.74971 0.05175,3.95137 c 0.04556,3.479228 0.08087,4.08219 0.295457,5.046207 0.806682,3.623943 2.450146,6.545345 5.054312,8.984482 2.560851,2.398568 5.529098,3.799744 9.370653,4.423463 0.158463,0.02573 8.871069,0.03874 19.361345,0.02892 l 19.073229,-0.01786 z"
     id="path1" />
  <path
     style="fill:#ff00ff;stroke-width:0.115246"
     d="m 32.729892,70.866536 c -2.575563,-0.323287 -4.65225,-2.102902 -5.435155,-4.657652 -0.198408,-0.647437 -0.211904,-1.297034 -0.211904,-10.19928 0,-9.499876 2.13e-4,-9.508476 0.255606,-10.314526 0.74254,-2.343542 2.577201,-4.000899 4.988092,-4.506037 3.033504,-0.63559 6.105551,1.170528 7.287987,4.284754 l 0.259049,0.682267 0.03345,9.496229 c 0.03235,9.183353 0.02583,9.526337 -0.197645,10.410073 -0.789152,3.120671 -3.81246,5.2017 -6.979477,4.804172 z"
     id="path2" />
  <path
     style="fill:#ff00ff;stroke-width:0.115246"
     d="M 56.70108,70.867223 C 54.177658,70.552986 52.039701,68.69086 51.295618,66.159155 51.133675,65.608152 51.111645,64.390984 51.111645,55.994636 v -9.53856 l 0.286851,-0.908044 c 0.697394,-2.207644 2.55937,-3.864368 4.899223,-4.359166 3.216801,-0.680241 6.576114,1.464052 7.430102,4.742732 0.268162,1.029546 0.26371,19.099351 -0.005,20.136189 -0.276714,1.067875 -0.78314,1.960981 -1.607412,2.834754 -1.407896,1.492444 -3.40045,2.215471 -5.414367,1.964682 z"
     id="path3" />
</svg>
